<?xml version="1.0" encoding="UTF-8" ?>
<!DOCTYPE svg PUBLIC "-//W3C//DTD SVG 1.1//EN" "http://www.w3.org/Graphics/SVG/1.1/DTD/svg11.dtd">
<svg width="592pt" height="162pt" viewBox="0 0 592 162" version="1.1" xmlns="http://www.w3.org/2000/svg">
<g id="#f7f7f7ff">
</g>
<g id="#ffffff">
<path fill="#ffffff" opacity="1.00" d=" M 439.98 22.77 C 440.66 22.72 441.34 22.69 442.03 22.70 C 448.44 36.19 453.56 50.26 459.64 63.91 C 462.77 70.75 464.85 78.07 468.76 84.55 C 471.57 84.56 474.39 84.65 477.20 84.90 C 477.21 86.33 477.23 87.77 477.27 89.20 C 453.41 89.29 429.56 89.27 405.70 89.21 C 405.69 87.74 405.69 86.27 405.70 84.80 C 408.11 84.68 410.54 84.69 412.95 84.49 C 415.60 82.16 416.53 78.58 417.97 75.48 C 425.41 57.95 432.83 40.42 439.98 22.77 M 437.90 39.73 C 432.08 51.87 427.64 64.61 422.17 76.90 C 420.94 79.56 420.17 82.39 419.44 85.21 C 431.48 85.35 443.53 85.25 455.57 85.27 C 455.50 83.44 455.73 81.50 454.84 79.82 C 449.03 66.53 444.06 52.86 437.90 39.73 Z" />
<path fill="#ffffff" opacity="1.00" d=" M 17.56 24.66 C 26.73 24.67 35.89 24.68 45.05 24.64 C 51.11 24.94 57.64 26.39 62.03 30.89 C 67.22 36.46 67.33 45.61 62.52 51.44 C 60.25 53.82 57.40 55.52 54.99 57.74 C 61.06 65.91 62.05 76.84 68.92 84.47 C 71.38 84.54 73.84 84.63 76.29 84.76 C 76.38 85.99 76.46 87.22 76.55 88.45 C 71.01 88.57 65.46 88.67 59.92 88.53 C 56.63 88.69 54.92 85.28 53.80 82.71 C 51.23 75.87 49.42 68.70 45.97 62.23 C 44.47 58.96 40.17 60.63 37.36 60.17 C 37.35 68.30 37.27 76.43 37.44 84.55 C 40.05 84.60 42.66 84.65 45.27 84.74 C 45.61 86.23 46.00 87.70 46.43 89.17 C 36.84 89.37 27.24 89.21 17.65 89.26 C 17.64 87.75 17.64 86.24 17.65 84.73 C 20.59 84.66 23.53 84.60 26.48 84.49 C 26.65 66.16 26.58 47.82 26.52 29.49 C 23.58 29.39 20.63 29.33 17.69 29.25 C 17.65 27.72 17.61 26.19 17.56 24.66 M 37.45 29.48 C 37.26 37.87 37.35 46.26 37.39 54.65 C 42.19 54.29 48.13 56.04 51.70 51.81 C 55.00 48.75 54.70 44.04 54.55 39.94 C 54.73 35.82 52.29 31.80 48.73 29.78 C 45.02 29.06 41.20 29.50 37.45 29.48 Z" />
<path fill="#ffffff" opacity="1.00" d=" M 119.64 24.79 C 129.52 24.59 139.41 24.59 149.29 24.78 C 149.24 26.06 149.21 27.33 149.17 28.60 C 146.30 29.44 143.30 29.44 140.34 29.43 C 140.26 47.80 140.16 66.18 140.39 84.55 C 143.31 84.73 146.59 84.05 149.11 85.94 C 149.25 87.00 149.24 88.08 149.29 89.15 C 139.46 89.36 129.61 89.29 119.78 89.17 C 119.78 87.72 119.78 86.28 119.79 84.84 C 122.69 84.64 125.60 84.57 128.51 84.65 C 129.76 81.92 129.35 78.90 129.39 76.00 C 129.35 60.53 129.39 45.06 129.38 29.58 C 126.55 29.15 123.42 29.93 120.79 28.68 C 119.19 28.09 119.95 26.07 119.64 24.79 Z" />
<path fill="#ffffff" opacity="1.00" d=" M 195.73 24.70 C 214.36 24.56 232.99 24.79 251.63 24.59 C 253.30 30.39 252.22 36.67 252.11 42.64 C 250.96 42.60 249.81 42.55 248.66 42.49 C 247.89 37.88 248.42 31.38 242.85 29.70 C 238.41 29.21 233.93 29.46 229.47 29.47 C 229.43 47.81 229.37 66.15 229.50 84.49 C 232.44 84.59 235.39 84.66 238.33 84.79 C 238.34 86.27 238.35 87.75 238.35 89.23 C 228.81 89.25 219.27 89.33 209.73 89.19 C 209.73 87.73 209.74 86.27 209.75 84.82 C 212.68 84.64 215.62 84.58 218.56 84.53 C 218.72 66.17 218.66 47.80 218.59 29.44 C 213.47 29.91 207.70 28.17 203.07 30.91 C 199.20 33.85 201.14 39.16 199.62 43.17 C 198.36 43.22 197.09 43.26 195.83 43.30 C 195.68 37.10 195.61 30.90 195.73 24.70 Z" />
<path fill="#ffffff" opacity="1.00" d=" M 341.71 24.77 C 349.61 24.62 357.53 24.51 365.43 24.85 C 364.74 26.43 364.49 28.45 362.70 29.18 C 360.59 29.50 358.45 29.39 356.34 29.46 C 355.85 41.96 356.98 54.53 355.55 66.97 C 355.84 74.06 352.93 81.58 347.07 85.80 C 339.55 90.32 330.08 91.64 321.76 88.62 C 315.04 86.63 309.47 80.70 308.43 73.73 C 308.06 59.08 308.41 44.43 308.24 29.79 C 305.42 29.05 302.54 28.60 299.62 28.50 C 299.54 27.71 299.37 26.14 299.29 25.35 C 308.46 25.37 317.63 25.32 326.80 25.38 C 326.77 26.09 326.71 27.50 326.68 28.21 C 324.11 29.50 321.21 29.42 318.42 29.53 C 318.29 43.01 318.35 56.49 318.41 69.97 C 317.80 77.80 325.08 85.25 332.96 84.71 C 336.02 84.59 339.39 85.25 342.15 83.58 C 347.11 81.08 351.27 75.85 350.71 70.06 C 350.72 56.51 350.84 42.97 350.62 29.43 C 347.67 29.39 344.73 29.34 341.80 29.16 C 341.77 27.70 341.74 26.24 341.71 24.77 Z" />
<path fill="#ffffff" opacity="1.00" d=" M 522.26 25.33 C 531.09 25.38 539.92 25.36 548.74 25.33 C 548.75 26.15 548.75 27.78 548.76 28.60 C 545.97 28.52 543.22 28.79 540.58 29.65 C 540.54 47.89 540.53 66.12 540.58 84.36 C 546.45 86.45 552.56 84.46 558.55 84.41 C 561.22 84.35 563.80 82.88 565.20 80.60 C 565.69 77.52 565.77 74.36 566.83 71.39 C 567.52 71.36 568.90 71.29 569.59 71.26 C 569.65 77.04 569.73 82.81 569.63 88.59 C 553.85 88.64 538.07 88.47 522.30 88.59 C 522.30 87.79 522.29 86.18 522.29 85.37 C 524.94 85.34 527.60 85.29 530.26 85.22 C 530.54 66.43 530.53 47.60 530.26 28.80 C 527.60 28.72 524.94 28.66 522.29 28.63 C 522.28 27.80 522.27 26.15 522.26 25.33 Z" />
</g>
</svg>
