<?xml version="1.0" encoding="UTF-8" ?>
<!DOCTYPE svg PUBLIC "-//W3C//DTD SVG 1.1//EN" "http://www.w3.org/Graphics/SVG/1.1/DTD/svg11.dtd">
<svg width="388pt" height="224pt" viewBox="0 0 388 224" version="1.1" xmlns="http://www.w3.org/2000/svg">
<g id="#d5bfb0ff">
</g>
<g id="#ffffffff">
<path fill="#ffffff" opacity="1.00" d=" M 127.10 40.97 C 127.78 32.55 132.52 24.66 139.62 20.08 C 139.56 32.88 139.79 45.68 139.50 58.47 C 146.76 59.02 154.07 58.53 161.35 58.72 C 160.63 60.26 159.81 61.76 159.12 63.31 C 152.58 63.43 146.02 63.01 139.50 63.52 C 139.80 85.68 139.55 107.85 139.63 130.01 C 139.95 139.28 134.75 148.22 127.03 153.17 C 126.83 123.21 127.03 93.25 126.93 63.29 C 119.75 63.28 112.56 63.36 105.38 63.26 C 106.18 61.72 106.94 60.15 107.80 58.64 C 114.18 58.76 120.56 58.69 126.94 58.70 C 127.08 52.79 126.73 46.87 127.10 40.97 Z" />
<path fill="#ffffff" opacity="1.00" d=" M 354.78 34.64 C 356.69 28.75 360.67 23.54 365.93 20.27 C 365.98 55.50 365.92 90.73 365.96 125.96 C 365.97 130.71 366.16 135.68 364.21 140.13 C 362.13 145.47 358.22 149.92 353.54 153.17 C 353.49 118.45 353.54 83.73 353.52 49.01 C 353.49 44.20 353.33 39.28 354.78 34.64 Z" />
<path fill="#ffffff" opacity="1.00" d=" M 17.62 89.02 C 17.41 73.02 31.01 58.12 46.99 56.99 C 51.36 56.59 55.75 56.67 60.13 56.75 C 58.27 58.86 56.03 61.02 53.02 61.01 C 47.19 61.40 41.06 62.55 36.59 66.62 C 32.18 70.38 30.24 76.33 30.23 82.00 C 30.15 102.00 30.32 122.02 30.15 142.02 C 29.59 148.53 22.65 150.66 17.64 152.96 C 17.61 131.65 17.65 110.34 17.62 89.02 Z" />
<path fill="#ffffff" opacity="1.00" d=" M 76.16 83.00 C 75.10 72.66 79.76 61.83 88.72 56.31 C 88.77 81.20 88.75 106.10 88.73 131.00 C 88.65 139.90 83.53 148.24 76.22 153.13 C 76.11 129.75 76.22 106.37 76.16 83.00 Z" />
<path fill="#ffffff" opacity="1.00" d=" M 174.71 78.99 C 174.77 70.06 179.76 61.67 187.14 56.80 C 187.14 79.87 187.14 102.93 187.14 126.00 C 187.32 131.30 188.28 136.98 191.84 141.14 C 200.32 150.86 217.58 150.77 225.92 140.91 C 229.38 136.78 230.22 131.22 230.28 126.00 C 230.32 110.33 230.20 94.66 230.33 78.99 C 230.40 70.04 235.42 61.55 242.87 56.71 C 242.96 77.83 242.91 98.95 242.90 120.07 C 242.97 128.19 239.84 136.24 234.24 142.12 C 221.70 156.63 196.41 156.64 183.61 142.45 C 178.06 136.76 174.71 129.00 174.71 121.02 C 174.66 107.01 174.65 93.00 174.71 78.99 Z" />
<path fill="#ffffff" opacity="1.00" d=" M 274.90 61.16 C 277.43 58.86 280.42 56.76 284.01 56.82 C 292.08 56.57 300.67 56.20 308.07 59.99 C 318.49 65.20 326.33 76.08 326.47 87.93 C 326.64 104.29 326.45 120.65 326.56 137.01 C 326.64 140.44 326.09 144.10 323.83 146.82 C 321.43 150.06 317.43 151.33 313.94 153.00 C 313.92 148.97 313.94 144.95 313.99 140.93 C 310.60 144.49 307.41 148.65 302.64 150.43 C 294.88 153.53 285.95 152.68 278.24 149.81 C 265.44 144.70 258.50 129.67 260.48 116.43 C 261.70 107.01 267.79 98.52 276.07 93.99 C 282.82 90.40 290.82 89.51 298.29 90.82 C 304.63 92.10 309.44 96.62 313.94 100.94 C 314.04 90.90 314.12 80.12 308.71 71.26 C 305.57 66.06 300.29 61.83 294.06 61.36 C 287.69 60.95 281.28 61.39 274.90 61.16 M 287.37 95.39 C 280.34 96.64 274.77 102.68 273.51 109.63 C 271.71 118.69 271.64 128.43 274.83 137.18 C 279.58 148.62 295.64 150.53 305.15 144.16 C 312.45 139.02 313.59 129.20 313.49 120.96 C 313.67 113.00 312.17 103.71 305.20 98.80 C 300.17 94.89 293.45 94.49 287.37 95.39 Z" />
</g>
</svg>
