<svg xmlns="http://www.w3.org/2000/svg" xmlns:xlink="http://www.w3.org/1999/xlink" width="500" zoomAndPan="magnify" viewBox="0 0 375 374.999991" height="500" preserveAspectRatio="xMidYMid meet" version="1.0"><rect x="-37.5" width="450" fill="#ffffff" y="-37.499999" height="449.999989" fill-opacity="1"/><rect x="-37.5" width="450" fill="#8c756a" y="-37.499999" height="449.999989" fill-opacity="1"/><path fill="#ffffff" d="M 138.59375 135.644531 C 139.089844 129.496094 142.546875 123.738281 147.726562 120.394531 C 147.683594 129.738281 147.851562 139.082031 147.640625 148.417969 C 152.9375 148.820312 158.269531 148.460938 163.578125 148.597656 C 163.050781 149.722656 162.453125 150.816406 161.953125 151.949219 C 157.179688 152.039062 152.394531 151.730469 147.640625 152.101562 C 147.859375 168.277344 147.675781 184.460938 147.734375 200.632812 C 147.96875 207.402344 144.175781 213.925781 138.542969 217.539062 C 138.398438 195.671875 138.542969 173.804688 138.472656 151.933594 C 133.234375 151.929688 127.988281 151.984375 122.753906 151.914062 C 123.335938 150.789062 123.890625 149.644531 124.515625 148.539062 C 129.171875 148.628906 133.824219 148.578125 138.480469 148.585938 C 138.582031 144.269531 138.324219 139.949219 138.59375 135.644531 Z M 138.59375 135.644531 " fill-opacity="1" fill-rule="nonzero"/><path fill="#ffffff" d="M 304.667969 131.023438 C 306.0625 126.722656 308.964844 122.921875 312.800781 120.535156 C 312.839844 146.25 312.796875 171.964844 312.824219 197.679688 C 312.832031 201.144531 312.96875 204.773438 311.546875 208.019531 C 310.03125 211.917969 307.179688 215.167969 303.765625 217.539062 C 303.730469 192.195312 303.765625 166.855469 303.75 141.511719 C 303.730469 138 303.613281 134.410156 304.667969 131.023438 Z M 304.667969 131.023438 " fill-opacity="1" fill-rule="nonzero"/><path fill="#ffffff" d="M 58.738281 170.714844 C 58.585938 159.039062 68.503906 148.160156 80.160156 147.335938 C 83.347656 147.042969 86.550781 147.101562 89.746094 147.160156 C 88.390625 148.703125 86.753906 150.277344 84.558594 150.269531 C 80.308594 150.554688 75.835938 151.394531 72.574219 154.367188 C 69.359375 157.109375 67.945312 161.453125 67.9375 165.589844 C 67.878906 180.191406 68 194.804688 67.878906 209.402344 C 67.46875 214.152344 62.40625 215.707031 58.753906 217.386719 C 58.730469 201.832031 58.761719 186.277344 58.738281 170.714844 Z M 58.738281 170.714844 " fill-opacity="1" fill-rule="nonzero"/><path fill="#ffffff" d="M 101.4375 166.320312 C 100.664062 158.773438 104.066406 150.871094 110.601562 146.839844 C 110.636719 165.007812 110.621094 183.183594 110.605469 201.355469 C 110.550781 207.855469 106.8125 213.941406 101.480469 217.511719 C 101.402344 200.445312 101.480469 183.378906 101.4375 166.320312 Z M 101.4375 166.320312 " fill-opacity="1" fill-rule="nonzero"/><path fill="#ffffff" d="M 173.324219 163.394531 C 173.367188 156.875 177.007812 150.753906 182.390625 147.199219 C 182.390625 164.035156 182.390625 180.867188 182.390625 197.707031 C 182.519531 201.578125 183.222656 205.722656 185.816406 208.757812 C 192.003906 215.851562 204.59375 215.789062 210.675781 208.589844 C 213.199219 205.578125 213.8125 201.519531 213.855469 197.707031 C 213.886719 186.269531 213.796875 174.832031 213.894531 163.394531 C 213.945312 156.863281 217.605469 150.664062 223.039062 147.132812 C 223.105469 162.546875 223.070312 177.964844 223.0625 193.378906 C 223.113281 199.304688 220.828125 205.183594 216.746094 209.472656 C 207.597656 220.066406 189.152344 220.070312 179.816406 209.714844 C 175.765625 205.5625 173.324219 199.898438 173.324219 194.074219 C 173.285156 183.847656 173.277344 173.621094 173.324219 163.394531 Z M 173.324219 163.394531 " fill-opacity="1" fill-rule="nonzero"/><path fill="#ffffff" d="M 246.402344 150.378906 C 248.25 148.703125 250.429688 147.167969 253.046875 147.210938 C 258.933594 147.03125 265.199219 146.761719 270.597656 149.527344 C 278.199219 153.328125 283.917969 161.269531 284.019531 169.921875 C 284.144531 181.863281 284.003906 193.804688 284.085938 205.742188 C 284.144531 208.246094 283.742188 210.917969 282.09375 212.90625 C 280.34375 215.269531 277.425781 216.195312 274.878906 217.414062 C 274.867188 214.472656 274.878906 211.539062 274.917969 208.605469 C 272.445312 211.203125 270.117188 214.242188 266.636719 215.539062 C 260.976562 217.800781 254.464844 217.183594 248.839844 215.085938 C 239.503906 211.355469 234.441406 200.386719 235.886719 190.722656 C 236.773438 183.847656 241.21875 177.648438 247.257812 174.34375 C 252.179688 171.722656 258.015625 171.074219 263.464844 172.03125 C 268.089844 172.964844 271.597656 176.261719 274.878906 179.417969 C 274.953125 172.089844 275.011719 164.21875 271.066406 157.753906 C 268.773438 153.957031 264.921875 150.871094 260.378906 150.527344 C 255.734375 150.226562 251.058594 150.546875 246.402344 150.378906 M 255.5 175.363281 C 250.371094 176.277344 246.308594 180.6875 245.390625 185.757812 C 244.078125 192.371094 244.027344 199.480469 246.351562 205.867188 C 249.816406 214.21875 261.53125 215.613281 268.46875 210.964844 C 273.792969 207.210938 274.625 200.042969 274.550781 194.027344 C 274.683594 188.21875 273.589844 181.4375 268.503906 177.855469 C 264.835938 175 259.933594 174.707031 255.5 175.363281 Z M 255.5 175.363281 " fill-opacity="1" fill-rule="nonzero"/></svg>